<svg xmlns="http://www.w3.org/2000/svg" viewBox="0 0 2290 1100"><defs><style>.cls-1{fill:#5e4f9c;}.cls-12,.cls-2,.cls-3{fill:#fff;}.cls-3{font-size:132.97px;}.cls-12,.cls-3{font-family:NeutraText-Bold, Neutra Text;font-weight:700;}.cls-4{letter-spacing:-0.02em;}.cls-5{letter-spacing:-0.02em;}.cls-6{letter-spacing:-0.02em;}.cls-7{letter-spacing:-0.13em;}.cls-8{letter-spacing:0em;}.cls-9{letter-spacing:-0.01em;}.cls-10{letter-spacing:-0.01em;}.cls-11{letter-spacing:0em;}.cls-12{font-size:80px;}.cls-13{letter-spacing:-0.01em;}.cls-14{letter-spacing:0em;}.cls-15{letter-spacing:0.01em;}.cls-16{letter-spacing:-0.01em;}.cls-17{letter-spacing:0em;}</style></defs><g id="guides_copy" data-name="guides copy"><rect class="cls-1" x="1190" width="1100" height="1100"/><path class="cls-2" d="M1928.92,859.38c22.16,36.18,51,62.77,102,62.77,42.83,0,70.19-21.41,70.19-51,0-35.45-28.11-48-75.25-68.62L2000,791.46c-74.59-31.78-124.14-71.59-124.14-155.75,0-77.52,59.07-136.54,151.38-136.54,65.72,0,113,22.88,147,82.76l-80.49,51.69c-17.73-31.78-36.85-44.3-66.53-44.3-30.27,0-49.46,19.21-49.46,44.3,0,31,19.2,43.56,63.55,62.77l25.84,11.07c87.83,37.66,137.42,76,137.42,162.38,0,93.06-73.11,144-171.29,144-96,0-158-45.75-188.36-105.71Zm-365.15,9c16.24,28.81,31,53.16,66.53,53.16,34,0,55.38-13.28,55.38-65V505.07h103.37V858c0,107-62.76,155.74-154.35,155.74-82.77,0-130.69-42.83-155.07-94.41Z"/><rect class="cls-1" width="1426.37" height="1100"/><text class="cls-3" transform="translate(84.62 601.08)"><tspan class="cls-4">J</tspan><tspan class="cls-5" x="63.96" y="0">a</tspan><tspan class="cls-6" x="126.18" y="0">v</tspan><tspan x="188.01" y="0">ascri</tspan><tspan class="cls-4" x="457.8" y="0">p</tspan><tspan x="529.07" y="0">t </tspan><tspan class="cls-7" x="609.24" y="0">T</tspan><tspan class="cls-8" x="670.01" y="0">e</tspan><tspan class="cls-9" x="740.88" y="0">s</tspan><tspan class="cls-8" x="794.87" y="0">t</tspan><tspan x="845" y="0">i</tspan><tspan class="cls-10" x="878.37" y="0">n</tspan><tspan x="947.51" y="0">g</tspan><tspan x="0" y="159.56">a P</tspan><tspan class="cls-5" x="174.18" y="159.56">r</tspan><tspan x="223.65" y="159.56">ac</tspan><tspan class="cls-8" x="351.96" y="159.56">t</tspan><tspan x="402.09" y="159.56">ical App</tspan><tspan class="cls-4" x="860.68" y="159.56">r</tspan><tspan class="cls-11" x="910.81" y="159.56">o</tspan><tspan x="982.61" y="159.56">ach</tspan></text><text class="cls-12" transform="translate(100 1009.95)"><tspan class="cls-13">Stef</tspan><tspan x="143.92" y="0">ano </tspan><tspan class="cls-13" x="286.64" y="0">M</tspan><tspan class="cls-14" x="352.24" y="0">a</tspan><tspan class="cls-15" x="391.28" y="0">g</tspan><tspan x="431.44" y="0">ni @</tspan><tspan class="cls-16" x="585.59" y="0">N</tspan><tspan x="640.87" y="0">ori</tspan><tspan class="cls-13" x="735.91" y="0">St</tspan><tspan class="cls-17" x="807.83" y="0">e</tspan></text></g></svg>